<?xml version="1.0" encoding="UTF-8"?>
<svg id="Layer_1" data-name="Layer 1" xmlns="http://www.w3.org/2000/svg" viewBox="0 0 512 512">
  <defs>
    <style>
      .cls-1 {
        fill: #5e5aa3;
      }

      .cls-2 {
        fill: #5f5f5f;
      }

      .cls-3 {
        fill: #c6c6c6;
      }

      .cls-4 {
        fill: #fff;
      }
    </style>
  </defs>
  <rect class="cls-1" width="512" height="512" rx="47.08" ry="47.08"/>
  <g>
    <path class="cls-4" d="M302.59,302.59h-71.62c-4.46,0-8.61-1.36-12.05-3.68-5.73-3.87-9.5-10.43-9.5-17.87v-71.62h-71.62c-11.9,0-21.56,9.65-21.56,21.56v143.23c0,11.9,9.65,21.56,21.56,21.56h143.23c11.9,0,21.56-9.65,21.56-21.56v-71.62h0Z"/>
    <path class="cls-3" d="M374.2,116.24h-143.23c-11.9,0-21.56,9.65-21.56,21.56v71.62h71.62c3.78,0,7.29,1.06,10.38,2.77.77.43,1.52.86,2.23,1.37,5.4,3.92,8.95,10.23,8.95,17.41v71.62h71.62c11.9,0,21.56-9.65,21.56-21.56v-143.23c0-11.9-9.65-21.56-21.56-21.56Z"/>
    <path class="cls-3" d="M281.03,209.41h0c3.78,0,7.29,1.06,10.38,2.77-3.09-1.71-6.59-2.77-10.38-2.77Z"/>
    <path class="cls-3" d="M293.64,213.56c5.4,3.92,8.95,10.23,8.95,17.41v71.62h0v-71.62c0-7.18-3.55-13.5-8.95-17.41Z"/>
    <path class="cls-2" d="M218.92,298.9c3.44,2.32,7.59,3.68,12.05,3.68h71.62s-71.62,0-71.62,0c-4.46,0-8.61-1.36-12.05-3.68Z"/>
    <path class="cls-2" d="M291.41,212.19c.77.43,1.52.86,2.23,1.37-.71-.51-1.46-.94-2.23-1.37Z"/>
    <path class="cls-2" d="M218.92,298.9c3.44,2.32,7.59,3.68,12.05,3.68h71.62v-71.62c0-7.18-3.55-13.5-8.95-17.41-.71-.51-1.46-.94-2.23-1.37-3.09-1.71-6.59-2.77-10.38-2.77h-71.61v71.62c0,7.44,3.77,14,9.5,17.87Z"/>
  </g>
</svg>