<?xml version="1.0" encoding="UTF-8"?><svg id="Layer_1" xmlns="http://www.w3.org/2000/svg" viewBox="0 0 500 500"><defs><style>.cls-1{fill:#aaa;}.cls-2{fill:#484884;}.cls-3{fill:#fff;}</style></defs><rect class="cls-2" width="500" height="500" rx="32.098" ry="32.098"/><path class="cls-3" d="M300.166,300.167h-77.121c-4.807,0-9.274-1.461-12.978-3.964-6.175-4.171-10.234-11.236-10.234-19.248v-77.121h-77.121c-12.82,0-23.212,10.393-23.212,23.212v154.241c0,12.82,10.392,23.212,23.212,23.212h154.241c12.82,0,23.212-10.392,23.212-23.212v-77.121h0Z"/><path class="cls-1" d="M377.287,99.501h-154.241c-12.82,0-23.212,10.393-23.212,23.212v77.121h77.121c4.074,0,7.847,1.142,11.175,2.986.827.459,1.642.922,2.404,1.475,5.813,4.219,9.633,11.02,9.633,18.752v77.121h77.121c12.82,0,23.212-10.392,23.212-23.212V122.713c0-12.82-10.392-23.212-23.212-23.212Z"/></svg>